<svg id="Capa_1" enable-background="new 0 0 512 512" height="512" viewBox="0 0 512 512" width="512" xmlns="http://www.w3.org/2000/svg"><g><g><path d="m204.482 273.173h34.346v181.829h-34.346z" fill="#454545"/></g><g><path d="m52.957 222.665h151.524v281.835h-151.524z" fill="#f9f6f9"/></g><g><path d="m494.398 475.205h-245.47c-5.579 0-10.102-4.523-10.102-10.102v-202.032c0-5.579 4.523-10.102 10.102-10.102h245.47c5.579 0 10.102 4.523 10.102 10.102v202.033c0 5.579-4.523 10.101-10.102 10.101z" fill="#f9f6f9"/></g><g><path d="m494.398 252.97h-8.081v193.951c0 5.579-4.523 10.102-10.102 10.102h-237.388v8.081c0 5.579 4.523 10.102 10.102 10.102h245.47c5.579 0 10.102-4.523 10.102-10.102v-202.033c-.001-5.579-4.524-10.101-10.103-10.101z" fill="#dfdde2"/></g><g><path d="m52.957 252.85c22.08 13.526 48.026 21.333 75.762 21.333s53.682-7.807 75.762-21.333v-30.185h-151.524z" fill="#dfdde2"/></g><g><path d="m108.516 408.535h40.407v86.874h-40.407z" fill="#e28086" transform="matrix(0 1 -1 0 580.691 323.252)"/></g><g><path d="m305.498 250.949h32.325v101.016h-32.325z" fill="#ffe07d" transform="matrix(0 1 -1 0 623.118 -20.203)"/></g><g><circle cx="128.72" cy="128.72" fill="#818181" r="121.22"/></g><g><path d="m204.857 34.4c16.82 20.811 26.9 47.295 26.9 76.137 0 66.948-54.272 121.22-121.22 121.22-28.842 0-55.326-10.08-76.137-26.9 22.222 27.495 56.214 45.083 94.32 45.083 66.948 0 121.22-54.272 121.22-121.22-.001-38.106-17.589-72.098-45.083-94.32z" fill="#595959"/></g><g><circle cx="128.72" cy="128.72" fill="#454545" r="83.843"/></g><g><circle cx="128.72" cy="128.72" fill="#9dc6fb" r="40.407"/></g><g><path d="m145.334 91.902c2.298 5.072 3.589 10.694 3.589 16.615 0 22.28-18.126 40.407-40.407 40.407-5.921 0-11.543-1.291-16.615-3.589 6.349 14.014 20.459 23.792 36.818 23.792 22.28 0 40.407-18.126 40.407-40.407 0-16.36-9.778-30.469-23.792-36.818z" fill="#80b4fb"/></g><g><path d="m494.398 245.47h-27.213c-4.143 0-7.5 3.357-7.5 7.5s3.357 7.5 7.5 7.5h27.213c1.435 0 2.602 1.167 2.602 2.602v202.032c0 1.435-1.167 2.602-2.602 2.602h-245.47c-1.435 0-2.602-1.167-2.602-2.602v-202.033c0-1.435 1.167-2.602 2.602-2.602h183.214c4.143 0 7.5-3.357 7.5-7.5s-3.357-7.5-7.5-7.5h-183.213c-9.705 0-17.602 7.896-17.602 17.602v2.602h-19.346v-38.874c27.792-23.629 45.458-58.827 45.458-98.079 0-70.977-57.743-128.72-128.719-128.72s-128.72 57.743-128.72 128.72c0 39.252 17.666 74.449 45.457 98.078v56.005c0 4.143 3.357 7.5 7.5 7.5s7.5-3.357 7.5-7.5v-45.005c19.801 12.436 43.204 19.641 68.263 19.641 25.058 0 48.461-7.205 68.262-19.64v152.343c0 4.143 3.357 7.5 7.5 7.5s7.5-3.357 7.5-7.5v-109.47h19.346v166.829h-19.346v-22.316c0-4.143-3.357-7.5-7.5-7.5s-7.5 3.357-7.5 7.5v71.815h-136.525v-179.179c0-4.143-3.357-7.5-7.5-7.5s-7.5 3.357-7.5 7.5v186.679c0 4.143 3.357 7.5 7.5 7.5h151.524c4.143 0 7.5-3.357 7.5-7.5v-41.998h19.346v2.602c0 9.705 7.896 17.602 17.602 17.602h245.47c9.705 0 17.602-7.896 17.602-17.602v-202.033c-.001-9.705-7.897-17.601-17.603-17.601zm-479.398-116.75c0-62.705 51.015-113.72 113.72-113.72s113.72 51.015 113.72 113.72-51.015 113.72-113.72 113.72-113.72-51.015-113.72-113.72z"/><path d="m271.152 277.795c-4.143 0-7.5 3.357-7.5 7.5v32.325c0 4.143 3.357 7.5 7.5 7.5h101.017c4.143 0 7.5-3.357 7.5-7.5v-32.325c0-4.143-3.357-7.5-7.5-7.5zm93.517 32.325h-86.017v-17.325h86.017z"/><path d="m108.517 386.74h40.406c4.143 0 7.5-3.357 7.5-7.5s-3.357-7.5-7.5-7.5h-40.406c-4.143 0-7.5 3.357-7.5 7.5s3.357 7.5 7.5 7.5z"/><path d="m108.517 354.415h40.406c4.143 0 7.5-3.357 7.5-7.5s-3.357-7.5-7.5-7.5h-40.406c-4.143 0-7.5 3.357-7.5 7.5s3.357 7.5 7.5 7.5z"/><path d="m469.145 434.37h-40.406c-4.143 0-7.5 3.357-7.5 7.5s3.357 7.5 7.5 7.5h40.406c4.143 0 7.5-3.357 7.5-7.5s-3.358-7.5-7.5-7.5z"/><path d="m469.145 402.045h-40.406c-4.143 0-7.5 3.357-7.5 7.5s3.357 7.5 7.5 7.5h40.406c4.143 0 7.5-3.357 7.5-7.5s-3.358-7.5-7.5-7.5z"/><path d="m108.517 322.09h40.406c4.143 0 7.5-3.357 7.5-7.5s-3.357-7.5-7.5-7.5h-40.406c-4.143 0-7.5 3.357-7.5 7.5s3.357 7.5 7.5 7.5z"/><path d="m77.782 431.769v40.406c0 4.143 3.357 7.5 7.5 7.5h86.874c4.143 0 7.5-3.357 7.5-7.5v-40.406c0-4.143-3.357-7.5-7.5-7.5h-86.874c-4.142 0-7.5 3.357-7.5 7.5zm15 7.5h71.874v25.406h-71.874z"/><path d="m128.72 37.376c-50.367 0-91.344 40.977-91.344 91.344s40.977 91.344 91.344 91.344 91.344-40.977 91.344-91.344-40.977-91.344-91.344-91.344zm0 167.687c-42.096 0-76.344-34.248-76.344-76.344s34.248-76.344 76.344-76.344 76.344 34.248 76.344 76.344-34.249 76.344-76.344 76.344z"/><path d="m128.72 80.813c-26.416 0-47.906 21.49-47.906 47.906s21.49 47.906 47.906 47.906 47.906-21.49 47.906-47.906-21.49-47.906-47.906-47.906zm0 80.813c-18.145 0-32.906-14.762-32.906-32.906s14.762-32.906 32.906-32.906 32.906 14.762 32.906 32.906-14.762 32.906-32.906 32.906z"/></g></g></svg>