<svg id="Capa_1" enable-background="new 0 0 511.921 511.921" height="512" viewBox="0 0 511.921 511.921" width="512" xmlns="http://www.w3.org/2000/svg"><g><path d="m176.454 431.514-30.911 64.016c-2.625 5.436-8.129 8.89-14.165 8.89-8.688 0-15.73-7.043-15.73-15.73v-57.176-21.248h75.142z" fill="#e9b665"/><path d="m396.274 431.514v57.176c0 8.688-7.043 15.73-15.73 15.73-6.036 0-11.54-3.454-14.165-8.89l-30.911-64.016-14.296-26.875h75.103v26.875z" fill="#e9b665"/><path d="m397.221 47.523c8.08 0 14.631 6.551 14.631 14.631v353.986h-311.782v-353.986c0-8.08 6.55-14.631 14.631-14.631z" fill="#fdd79b"/><path d="m174.521 377.14c-14.733 0-26.676-11.943-26.676-26.676v-288.31c0-8.08 6.55-14.631 14.631-14.631h-47.775c-8.08 0-14.631 6.55-14.631 14.631v340.059h37.744v13.927h274.038v-13.927-8.073-17z" fill="#fccd7f"/><path d="m421.802 394.14h-281.837v1.093h-39.895v-1.093h-9.951c-8.636 0-15.637 7.001-15.637 15.637v6.1c0 8.636 7.001 15.637 15.637 15.637h331.683c8.636 0 15.637-7.001 15.637-15.637v-6.1c.001-8.636-7-15.637-15.637-15.637z" fill="#fdd79b"/><path d="m130.071 415.877v-6.1c0-8.636 7.001-15.637 15.637-15.637h-55.589c-8.636 0-15.637 7.001-15.637 15.637v6.1c0 8.636 7.001 15.637 15.637 15.637h55.589c-8.636 0-15.637-7.001-15.637-15.637z" fill="#fccd7f"/><path d="m171.427 47.523h169.067v38.347h-169.067z" fill="#fccd7f"/><path d="m374.215 77.52h-236.509c-4.217 0-7.635 3.419-7.635 7.635v252.075l38.84 8.733h200.849l12.09-31.764v-229.044c.001-4.217-3.418-7.635-7.635-7.635z" fill="#99e6fc"/><path d="m171.427 77.52v14.129c0 13.537 11.013 24.551 24.55 24.551h119.968c13.537 0 24.55-11.014 24.55-24.551v-14.129z" fill="#62dbfb"/><path d="m147.845 77.52h-10.139c-4.217 0-7.635 3.419-7.635 7.635v252.075l17.774 3.997z" fill="#62dbfb"/><g><path d="m326.991 235.65c-5.15-7.37-15.95-7.66-21.48-.58l-39.34 50.31-40.55 51.85 95.55 26.91h55.393c2.92 0 5.287-2.367 5.287-5.287v-44.653z" fill="#6cf5c2"/><path d="m306.681 313.698c-11.148-15.965-10.571-37.336 1.424-52.675l17.199-21.995c.715-.916 1.521-1.703 2.389-2.372l-.702-1.006c-5.15-7.37-15.95-7.66-21.48-.58l-28.387 36.303-10.953 14.007-40.55 51.85 95.55 26.91h20.735z" fill="#00f2a6"/><path d="m266.171 285.38 55 78.76h-185.813c-2.92 0-5.287-2.367-5.287-5.287v-21.623l79.88-102.16c5.54-7.08 16.34-6.79 21.48.58z" fill="#6cf5c2"/></g><circle cx="276.015" cy="179.517" fill="#fedf30" r="17.837"/><path d="m306.814 28.183h-15.824c-1.031 0-1.868-.836-1.868-1.868v-8.583c0-5.651-4.581-10.232-10.232-10.232h-45.859c-5.651 0-10.233 4.581-10.233 10.233v8.867c0 .874-.709 1.583-1.583 1.583h-16.108c-9.212 0-16.68 7.468-16.68 16.68v46.786c0 4.17 3.38 7.55 7.55 7.55h119.968c4.17 0 7.55-3.38 7.55-7.55v-46.786c0-9.212-7.469-16.68-16.681-16.68z" fill="#fddeb0"/><g><path d="m206.838 61.864c0-9.212 7.468-16.68 16.68-16.68h7.241c5.771 0 10.45-4.679 10.45-10.45 0-5.651 4.581-10.232 10.232-10.232h37.68v-6.768c0-5.651-4.581-10.232-10.232-10.232h-45.859c-5.651 0-10.233 4.581-10.233 10.233v8.558c0 1.045-.847 1.892-1.892 1.892h-15.8c-9.212 0-16.68 7.468-16.68 16.68v46.786c0 4.17 3.38 7.55 7.55 7.55h10.862v-37.337z" fill="#fdd79b"/></g><path d="m308.465 345.945h-109.926c-18.527 0-28.895-21.359-17.438-35.919 25.003-31.773 49.817-63.075 49.817-63.075 1.517-1.938 3.433-3.304 5.514-4.143l-5.001-7.159c-5.14-7.37-15.94-7.66-21.48-.58l-79.88 102.16v21.623c0 2.369 1.569 4.351 3.717 5.023l-.007.01c.061.019.125.028.186.045.16.044.319.088.485.117.295.055.595.091.906.091h3.492 182.321z" fill="#00f2a6"/><g><path d="m130.07 133.402c4.142 0 7.5-3.357 7.5-7.5v-40.88h20.857c4.142 0 7.5-3.357 7.5-7.5s-3.358-7.5-7.5-7.5h-28.357c-4.142 0-7.5 3.357-7.5 7.5v48.38c0 4.143 3.358 7.5 7.5 7.5z"/><path d="m421.803 386.64h-2.451v-324.487c0-12.203-9.928-22.131-22.131-22.131h-43.727c-4.143 0-7.5 3.357-7.5 7.5s3.357 7.5 7.5 7.5h43.727c3.932 0 7.131 3.199 7.131 7.131v324.487h-296.782v-324.487c0-3.932 3.199-7.131 7.131-7.131h43.726c4.142 0 7.5-3.357 7.5-7.5s-3.358-7.5-7.5-7.5h-43.726c-12.203 0-22.131 9.928-22.131 22.131v324.487h-2.451c-12.758 0-23.138 10.38-23.138 23.138v6.1c0 12.758 10.379 23.137 23.138 23.137h18.029v49.677c0 12.81 10.421 23.23 23.23 23.23 8.857 0 17.069-5.154 20.919-13.13l28.864-59.777h96.709c4.143 0 7.5-3.357 7.5-7.5s-3.357-7.5-7.5-7.5h-187.751c-4.487 0-8.138-3.65-8.138-8.137v-6.1c0-4.487 3.65-8.138 8.138-8.138h331.684c4.486 0 8.137 3.65 8.137 8.138v6.1c0 4.486-3.65 8.137-8.137 8.137h-111.97c-4.143 0-7.5 3.357-7.5 7.5s3.357 7.5 7.5 7.5h20.928l28.863 59.777c3.852 7.977 12.063 13.13 20.92 13.13 12.809 0 23.229-10.421 23.229-23.23v-49.677h18.029c12.758 0 23.137-10.379 23.137-23.137v-6.1c0-12.758-10.378-23.138-23.136-23.138zm-283.014 105.63c-1.364 2.825-4.273 4.651-7.411 4.651-4.538 0-8.23-3.692-8.23-8.23v-49.677h41.356zm249.984-3.58c0 4.538-3.691 8.23-8.229 8.23-3.139 0-6.048-1.826-7.412-4.651l-25.714-53.256h41.356v49.677z"/><path d="m195.977 106.699h119.968c8.299 0 15.05-6.752 15.05-15.051v-46.785c0-13.333-10.847-24.181-24.18-24.181h-10.192v-2.95c-.001-9.777-7.956-17.732-17.733-17.732h-45.858c-9.778 0-17.733 7.955-17.733 17.732v2.95h-10.191c-13.333 0-24.181 10.848-24.181 24.181v46.785c0 8.299 6.751 15.051 15.05 15.051zm-.05-61.836c0-5.063 4.119-9.181 9.181-9.181h17.691c4.142 0 7.5-3.357 7.5-7.5v-10.45c0-1.507 1.226-2.732 2.733-2.732h45.858c1.507 0 2.732 1.226 2.732 2.732v10.45c0 4.143 3.357 7.5 7.5 7.5h17.692c5.062 0 9.18 4.118 9.18 9.181l-.05 46.836-120.018-.051v-46.785z"/><path d="m269.553 53.477h-25.236c-4.142 0-7.5 3.357-7.5 7.5s3.358 7.5 7.5 7.5h25.236c4.143 0 7.5-3.357 7.5-7.5s-3.358-7.5-7.5-7.5z"/><path d="m333.136 231.354c-3.828-5.482-9.856-8.729-16.54-8.909-6.689-.202-12.878 2.735-16.996 8.003l-33.092 42.32-28.924-41.414c-3.828-5.481-9.856-8.729-16.54-8.909-6.686-.209-12.879 2.736-16.998 8.003l-66.476 85.014v-157.598c0-4.143-3.358-7.5-7.5-7.5s-7.5 3.357-7.5 7.5v206.276c0 4.143 3.358 7.5 7.5 7.5h191.096c.006 0 .011.001.017.001.004 0 .009-.001.013-.001h60.656c4.143 0 7.5-3.357 7.5-7.5v-286.618c0-4.143-3.357-7.5-7.5-7.5h-28.357c-4.143 0-7.5 3.357-7.5 7.5s3.357 7.5 7.5 7.5h20.857v205.343zm-8.05 125.286-21.833-31.26c-2.371-3.396-7.047-4.229-10.443-1.854-3.396 2.371-4.226 7.047-1.854 10.443l15.833 22.67h-169.219v-16.827l78.292-100.125c1.157-1.48 2.901-2.324 4.776-2.249 1.878.051 3.571.963 4.647 2.504l34.694 49.674c.014.021.029.042.044.063l12.629 18.082c2.371 3.395 7.044 4.227 10.443 1.854 3.396-2.371 4.226-7.047 1.854-10.443l-9.458-13.542 35.925-45.943c1.157-1.479 2.896-2.335 4.774-2.248 1.878.051 3.572.963 4.648 2.504l53.513 76.62v40.078h-49.265z"/><path d="m301.352 179.517c0-13.971-11.366-25.337-25.337-25.337s-25.336 11.366-25.336 25.337 11.365 25.337 25.336 25.337 25.337-11.367 25.337-25.337zm-35.673 0c0-5.7 4.637-10.337 10.336-10.337 5.7 0 10.337 4.637 10.337 10.337s-4.637 10.337-10.337 10.337-10.336-4.637-10.336-10.337z"/></g></g></svg>